/* XPM */
static char *icone_xpm[] = {
/* columns rows colors chars-per-pixel */
"16 16 40 1 ",
"  c gray13",
". c #222222",
"X c #232323",
"o c gray14",
"O c #252525",
"+ c gray15",
"@ c #272727",
"# c #2A2A2A",
"$ c gray17",
"% c #323232",
"& c #393939",
"* c #3E3E3E",
"= c #464646",
"- c #4E4E4E",
"; c #5A5A5A",
": c #5D5D5D",
"> c #717171",
", c gray46",
"< c #838383",
"1 c #848484",
"2 c #898989",
"3 c gray54",
"4 c gray55",
"5 c gray56",
"6 c #929292",
"7 c gray63",
"8 c #A5A5A5",
"9 c #ACACAC",
"0 c gray69",
"q c gray84",
"w c #DDDDDD",
"e c gray88",
"r c #E4E4E4",
"t c gray92",
"y c #EEEEEE",
"u c #EFEFEF",
"i c gray94",
"p c #F1F1F1",
"a c #FEFEFE",
"s c white",
/* pixels */
"ssssssssssssssss",
"ssssssssssssssss",
"sssssssss0%:psss",
"ss2+  +29&q<-pss",
"ss+yssy+&wss1;ss",
"ss ssss >ssse#ss",
"ss ssss =6sr*8ss",
"ss ssss t=,*7sss",
"ss          2sss",
"ss ssss sssy+sss",
"ss ssss ssss sss",
"ss ssss ssss sss",
"ss+ysss sssy+sss",
"ss5#       +5sss",
"ssssssssssssssss",
"ssssssssssssssss"
};
