/* XPM */
static char *tray3_xpm[] = {
/* columns rows colors chars-per-pixel */
"22 22 85 1 ",
"  c black",
". c #010101",
"X c #030303",
"o c #1E1E1E",
"O c #1F1F1F",
"+ c #313131",
"@ c #323232",
"# c #363636",
"$ c #3B3B3B",
"% c #3F3F3F",
"& c #414141",
"* c #434343",
"= c #454545",
"- c #464646",
"; c #4A4A4A",
": c #4D4D4D",
"> c #4F4F4F",
", c #515151",
"< c #545454",
"1 c #575757",
"2 c #585858",
"3 c #5F5F5F",
"4 c #606060",
"5 c #636363",
"6 c #646464",
"7 c #707070",
"8 c #727272",
"9 c #737373",
"0 c #757575",
"q c #767676",
"w c #787878",
"e c #7C7C7C",
"r c #7D7D7D",
"t c #838383",
"y c #848484",
"u c #858585",
"i c #878787",
"p c #888888",
"a c #8A8A8A",
"s c #8B8B8B",
"d c #8F8F8F",
"f c #909090",
"g c #929292",
"h c #939393",
"j c #979797",
"k c #9B9B9B",
"l c #9D9D9D",
"z c #9E9E9E",
"x c #9F9F9F",
"c c #A5A5A5",
"v c #A9A9A9",
"b c #ABABAB",
"n c #ACACAC",
"m c #B3B3B3",
"M c #B4B4B4",
"N c #B5B5B5",
"B c #C6C6C6",
"V c #C8C8C8",
"C c #CBCBCB",
"Z c #CCCCCC",
"A c #D0D0D0",
"S c #D2D2D2",
"D c #D3D3D3",
"F c #D5D5D5",
"G c #DCDCDC",
"H c #DFDFDF",
"J c #E0E0E0",
"K c #E1E1E1",
"L c #E5E5E5",
"P c #E6E6E6",
"I c #E7E7E7",
"U c #E8E8E8",
"Y c #E9E9E9",
"T c #EAEAEA",
"R c #EBEBEB",
"E c #ECECEC",
"W c #EEEEEE",
"Q c #EFEFEF",
"! c #F3F3F3",
"~ c #F5F5F5",
"^ c #F6F6F6",
"/ c #F7F7F7",
"( c #F9F9F9",
") c #FAFAFA",
"_ c #FFFFFF",
/* pixels */
"                      ",
"             @dW<     ",
"          #jT___b     ",
"       $xW______/     ",
"    *c!___TS(____*    ",
" <b/___Lf%;q4xK__c    ",
" W____S7qZTVNr3S_!    ",
" d___K4uT____/s7L_@   ",
" @___nr/______S<:fu   ",
"  T__NG______Tk=osW   ",
"  j__/________/bsW_#  ",
"  #_Tsb/________/__j  ",
"   Wuo=kT______Gm__T  ",
"   uf,2S______/rb___@ ",
"   @_Lqu/____Tt3K___d ",
"    !_S4rNBTVq7S____W ",
"    c__Kx6w:*fL___/b< ",
"    *____(FT___!c*    ",
"     /______Wx$       ",
"     b___Tj#          ",
"     <Wd@             ",
"                      "
};
