/* XPM */
static char *tray2_xpm[] = {
/* columns rows colors chars-per-pixel */
"16 16 47 1 ",
"  c gray13",
". c #2A2A2A",
"X c gray17",
"o c #2D2D2D",
"O c #494949",
"+ c gray29",
"@ c #4B4B4B",
"# c #4C4C4C",
"$ c #505050",
"% c #515151",
"& c gray32",
"* c #535353",
"= c #606060",
"- c gray38",
"; c #626262",
": c gray39",
"> c gray40",
", c #676767",
"< c DimGray",
"1 c #6A6A6A",
"2 c gray44",
"3 c #727272",
"4 c gray58",
"5 c #979797",
"6 c gray62",
"7 c #9F9F9F",
"8 c gray63",
"9 c #A2A2A2",
"0 c #A9A9A9",
"q c #AAAAAA",
"w c gray68",
"e c gray77",
"r c #C6C6C6",
"t c gray78",
"y c #C8C8C8",
"u c #E7E7E7",
"i c #EAEAEA",
"p c gray95",
"a c #F3F3F3",
"s c #F4F4F4",
"d c gray96",
"f c #F8F8F8",
"g c #F9F9F9",
"h c gray98",
"j c #FBFBFB",
"k c #FEFEFE",
"l c white",
/* pixels */
"lllllllwglllllll",
"lllllll<,gllllll",
"llllg7$. 0llllll",
"llluO,t=,gl3illl",
"llgO5llwgll5Ogll",
"ll7,llllllll=8ll",
"ll$yllllllllt$ll",
"ll.dllllllllaoll",
"lloalllllllldoll",
"ll$tllllllllt$ll",
"ll8=llllllll=8ll",
"llg#5llgwll5#gll",
"llli3lg,=t=#ulll",
"llllll0 .$8gllll",
"llllllg,<lllllll",
"lllllllgwlllllll"
};
