/* XPM */
static char *tray4_xpm[] = {
/* columns rows colors chars-per-pixel */
"24 24 88 1 ",
"  c black",
". c #020202",
"X c #080808",
"o c #0E0E0E",
"O c #1B1B1B",
"+ c #232323",
"@ c #242424",
"# c #2C2C2C",
"$ c #2E2E2E",
"% c #3E3E3E",
"& c #404040",
"* c #414141",
"= c #434343",
"- c #474747",
"; c #575757",
": c #585858",
"> c #595959",
", c #5A5A5A",
"< c #5B5B5B",
"1 c #5C5C5C",
"2 c #616161",
"3 c #626262",
"4 c #636363",
"5 c #646464",
"6 c #676767",
"7 c #686868",
"8 c #696969",
"9 c #6A6A6A",
"0 c #6E6E6E",
"q c #717171",
"w c #737373",
"e c #767676",
"r c #787878",
"t c #797979",
"y c #7A7A7A",
"u c #7B7B7B",
"i c #7F7F7F",
"p c #828282",
"a c #858585",
"s c #868686",
"d c #878787",
"f c #949494",
"g c #9D9D9D",
"h c #9E9E9E",
"j c #9F9F9F",
"k c #A2A2A2",
"l c #AEAEAE",
"z c #AFAFAF",
"x c #B0B0B0",
"c c #B1B1B1",
"v c #B2B2B2",
"b c #B4B4B4",
"n c #B5B5B5",
"m c #B6B6B6",
"M c #C4C4C4",
"N c #C6C6C6",
"B c #C9C9C9",
"V c #CACACA",
"C c #CBCBCB",
"Z c #D1D1D1",
"A c #D3D3D3",
"S c #D4D4D4",
"D c #D5D5D5",
"F c #D9D9D9",
"G c #DADADA",
"H c #DBDBDB",
"J c #DCDCDC",
"K c #DDDDDD",
"L c #DEDEDE",
"P c #E1E1E1",
"I c #E2E2E2",
"U c #E4E4E4",
"Y c #E5E5E5",
"T c #E6E6E6",
"R c #E7E7E7",
"E c #E8E8E8",
"W c #E9E9E9",
"Q c #EBEBEB",
"! c #ECECEC",
"~ c #EDEDED",
"^ c #EEEEEE",
"/ c #F1F1F1",
"( c #F9F9F9",
") c #FAFAFA",
"_ c #FBFBFB",
"` c #FCFCFC",
"' c #FEFEFE",
"] c white",
/* pixels */
"             X          ",
"            =^-         ",
"           s]]^o        ",
"         OV]]]]m        ",
"        ,_]]]]]]q       ",
"       f]]]_R/]]]$      ",
"     $Vk6gIHu,zS]L      ",
"    q]]g@%Q]Zvu,L]g     ",
"  om]]S6,0^]]]Qg=]],    ",
" -^]]]ziHm]]]]]]9s]_O   ",
"X^]]]/,v]]]]]]]]MqR]V   ",
" =]]]I3Z]]]]]]]]V3^]]s  ",
"  s]]^3V]]]]]]]]S3I]]]= ",
"   V]ReM]]]]]]]]v,/]]]^X",
"   O_]s9]]]]]]mHpz]]]^- ",
"    ,]]=gQ]]]^0;3S]]mo  ",
"     g]L1uvZ]Q%+g]]q    ",
"      L]Sz,uHIg6kV$     ",
"      $]]]/R_]]]f       ",
"       q]]]]]]_,        ",
"        m]]]]VO         ",
"        o^]]s           ",
"         -^=            ",
"          X             "
};
