/* XPM */
static char *tray6_xpm[] = {
/* columns rows colors chars-per-pixel */
"22 22 78 1 ",
"  c #000000",
". c #030303",
"X c #252525",
"o c #262626",
"O c #323232",
"+ c #363636",
"@ c #3B3B3B",
"# c #3E3E3E",
"$ c #404040",
"% c #414141",
"& c #434343",
"* c #454545",
"= c #4C4C4C",
"- c #4D4D4D",
"; c #4F4F4F",
": c #545454",
"> c #5F5F5F",
", c #606060",
"< c #636363",
"1 c #646464",
"2 c #6F6F6F",
"3 c #727272",
"4 c #767676",
"5 c #777777",
"6 c #787878",
"7 c #797979",
"8 c #7C7C7C",
"9 c #7D7D7D",
"0 c #7F7F7F",
"q c #808080",
"w c #858585",
"e c #868686",
"r c #888888",
"t c #8C8C8C",
"y c #8F8F8F",
"u c #909090",
"i c #979797",
"p c #9D9D9D",
"a c #9E9E9E",
"s c #9F9F9F",
"d c #A1A1A1",
"f c #A2A2A2",
"g c #A5A5A5",
"h c #A6A6A6",
"j c #A7A7A7",
"k c #ABABAB",
"l c #B0B0B0",
"z c #B4B4B4",
"x c #B6B6B6",
"c c #B7B7B7",
"v c #BDBDBD",
"b c #C4C4C4",
"n c #C5C5C5",
"m c #C7C7C7",
"M c #CCCCCC",
"N c #CFCFCF",
"B c #D1D1D1",
"V c #D3D3D3",
"C c #D5D5D5",
"Z c #DBDBDB",
"A c #E0E0E0",
"S c #E4E4E4",
"D c #E5E5E5",
"F c #E6E6E6",
"G c #E7E7E7",
"H c #E8E8E8",
"J c #E9E9E9",
"K c #EAEAEA",
"L c #EBEBEB",
"P c #ECECEC",
"I c #EEEEEE",
"U c #F1F1F1",
"Y c #F3F3F3",
"T c #F6F6F6",
"R c #F7F7F7",
"E c #FAFAFA",
"W c #FBFBFB",
"Q c white",
/* pixels */
"                      ",
"     :IyO             ",
"     kQQQKi+          ",
"     RQQQQQQIs@       ",
"    &QQQQWCKQQQYg&    ",
"    gQQDd,5-&uDQQQRk: ",
"    YQQgwzbDM53BQQQQI ",
"   #QYZQWQQQQKw,AQQQy ",
"   yl-6YQQQQQQR8sQQQO ",
"   vqX*bQQQQQQQz1WQK  ",
"  +QD-yzWQQQQQQM6CQi  ",
"  iQC6MQQQQQQWzy-DQ+  ",
"  KQW,zQQQQQQQb*Xqv   ",
" OQQQs8RQQQQQQY6-ly   ",
" yQQQZ>rIQQQQWQZYQ#   ",
" IQQQQM25MDbzwgQQY    ",
" :kRQQQDy&-51dDQQg    ",
"    &gYQQQKCWQQQQ&    ",
"       @sIQQQQQQR     ",
"          +iKQQQk     ",
"             OyI:     ",
"                      "
};
