/* XPM */
static char *tray5_xpm[] = {
/* columns rows colors chars-per-pixel */
"24 24 86 1 ",
"  c black",
". c #020202",
"X c #040404",
"o c #080808",
"O c #0E0E0E",
"+ c #1B1B1B",
"@ c #1E1E1E",
"# c #1F1F1F",
"$ c #2C2C2C",
"% c #3A3A3A",
"& c #3F3F3F",
"* c #414141",
"= c #434343",
"- c #474747",
"; c #595959",
": c #5A5A5A",
"> c #5B5B5B",
", c #5C5C5C",
"< c #606060",
"1 c #616161",
"2 c #626262",
"3 c #636363",
"4 c #656565",
"5 c #666666",
"6 c #676767",
"7 c #696969",
"8 c #6A6A6A",
"9 c #6C6C6C",
"0 c #717171",
"q c #757575",
"w c #767676",
"e c #787878",
"r c #7A7A7A",
"t c #7C7C7C",
"y c #7D7D7D",
"u c #7E7E7E",
"i c #7F7F7F",
"p c #868686",
"a c #878787",
"s c #9D9D9D",
"d c #9F9F9F",
"f c #A0A0A0",
"g c #ADADAD",
"h c #AFAFAF",
"j c #B2B2B2",
"k c #B3B3B3",
"l c #B6B6B6",
"z c #B7B7B7",
"x c #B8B8B8",
"c c #B9B9B9",
"v c #C2C2C2",
"b c #C4C4C4",
"n c #C8C8C8",
"m c #C9C9C9",
"M c #CBCBCB",
"N c #CDCDCD",
"B c #D0D0D0",
"V c #D3D3D3",
"C c #D4D4D4",
"Z c #D5D5D5",
"A c #D9D9D9",
"S c #DCDCDC",
"D c #DDDDDD",
"F c #DEDEDE",
"G c #E0E0E0",
"H c #E1E1E1",
"J c #E2E2E2",
"K c #E3E3E3",
"L c #E4E4E4",
"P c #E5E5E5",
"I c #E6E6E6",
"U c #E9E9E9",
"Y c #EAEAEA",
"T c #ECECEC",
"R c #EEEEEE",
"E c #F0F0F0",
"W c #F1F1F1",
"Q c #F3F3F3",
"! c #F4F4F4",
"~ c #F5F5F5",
"^ c #F7F7F7",
"/ c #F9F9F9",
"( c #FCFCFC",
") c #FDFDFD",
"_ c #FEFEFE",
"` c white",
/* pixels */
"          o             ",
"         -T=            ",
"        OT``p           ",
"        l````m+         ",
"       0``````/>        ",
"      $```EJEP`AtX      ",
"      S`Zh>22et6mJ$     ",
"     d`S,tjVml%#d``0    ",
"    >``=fU```l96c```lO  ",
"   +/`p7`````P^^`E```T- ",
"   m`Pwv````````Jt^```To",
"  p``E2m````````V2J```= ",
" =```J2V````````m2E``p  ",
"oT```^tJ````````bwP`m   ",
" -T```E`^^P`````7p`/+   ",
"  Ol```c69l```Uf&``>    ",
"    0``d#%cNZjt>S`d     ",
"     $Jm6ew22>hV`A      ",
"      XtA`PTJE```$      ",
"        >/``````0       ",
"         +m````l        ",
"           p``TO        ",
"            =T-         ",
"             o          "
};
